<svg width="77" height="77" viewBox="0 0 77 77" fill="none" xmlns="http://www.w3.org/2000/svg">
<path d="M0 19.2329H19.2329V0C14.1322 0.000562217 9.24054 2.02704 5.63379 5.63379C2.02704 9.24054 0.000562217 14.1322 0 19.2329Z" fill="#E82173"/>
<path d="M57.7016 0C52.6009 0.000562217 47.7093 2.02704 44.1026 5.63379C40.4958 9.24054 38.4693 14.1322 38.4688 19.2329H57.7016V0Z" fill="#E82173"/>
<path d="M63.9196 38.4617H76.9316V19.2288H57.6987L38.4658 38.4617V57.6946H19.2329V38.4617H38.4658V19.2288H19.2329L0 38.4617V57.6946C0 62.7954 2.02631 67.6874 5.63318 71.2942C9.24004 74.9011 14.132 76.9275 19.2329 76.9275H76.9295V57.6946H57.6966V38.4617H63.9196Z" fill="#E82173"/>
</svg>
